<svg xmlns="http://www.w3.org/2000/svg" version="1.1" xmlns:xlink="http://www.w3.org/1999/xlink" width="512" height="512"><svg xmlns="http://www.w3.org/2000/svg" version="1.1" width="512" height="512" viewBox="1260 232 558 558" style="shape-rendering:geometricPrecision; text-rendering:geometricPrecision; image-rendering:optimizeQuality; fill-rule:evenodd; clip-rule:evenodd" xmlns:xlink="http://www.w3.org/1999/xlink">
<g><path style="opacity:0.998" fill="#ff992b" d="M 1346.5,232.5 C 1475.17,232.333 1603.83,232.5 1732.5,233C 1780.33,242.167 1808.83,270.667 1818,318.5C 1818.67,447.167 1818.67,575.833 1818,704.5C 1808.83,752.333 1780.33,780.833 1732.5,790C 1603.83,790.667 1475.17,790.667 1346.5,790C 1298.67,780.833 1270.17,752.333 1261,704.5C 1260.33,575.833 1260.33,447.167 1261,318.5C 1270.35,270.654 1298.85,241.987 1346.5,232.5 Z"></path></g>
<g><path style="opacity:1" fill="#fffefd" d="M 1379.5,328.5 C 1412.17,328.333 1444.84,328.5 1477.5,329C 1478.67,330.167 1479.83,331.333 1481,332.5C 1481.33,403.5 1481.67,474.5 1482,545.5C 1482.4,560.259 1485.07,574.593 1490,588.5C 1495.47,599.617 1504.3,606.783 1516.5,610C 1531.47,613.259 1546.47,613.259 1561.5,610C 1579.33,605.169 1589.83,593.669 1593,575.5C 1596.11,559.319 1597.77,542.985 1598,526.5C 1598.33,461.5 1598.67,396.5 1599,331.5C 1599.83,330.667 1600.67,329.833 1601.5,329C 1633.83,328.333 1666.17,328.333 1698.5,329C 1699.67,330.167 1700.83,331.333 1702,332.5C 1702.67,402.167 1702.67,471.833 1702,541.5C 1701.71,566.844 1698.71,591.844 1693,616.5C 1682.39,650.113 1660.89,673.946 1628.5,688C 1607.64,696.371 1585.98,701.038 1563.5,702C 1525.47,705.938 1488.47,701.605 1452.5,689C 1414.86,673.209 1391.69,645.376 1383,605.5C 1380.68,594.256 1379.02,582.923 1378,571.5C 1376.38,491.514 1376.04,411.514 1377,331.5C 1378.04,330.627 1378.88,329.627 1379.5,328.5 Z"></path></g>
</svg><style>@media (prefers-color-scheme: light) { :root { filter: none; } }
@media (prefers-color-scheme: dark) { :root { filter: none; } }
</style></svg>